<svg xmlns="http://www.w3.org/2000/svg" width="100" height="80" viewBox="0 0 100 80" version="1.1"><path d="M 0 40.009 L 0 80.018 50.250 79.759 L 100.500 79.500 100.761 39.750 L 101.023 0 50.511 0 L 0 0 0 40.009 M 0.456 40.500 C 0.456 62.500, 0.588 71.358, 0.749 60.183 C 0.910 49.009, 0.910 31.009, 0.749 20.183 C 0.587 9.358, 0.455 18.500, 0.456 40.500 M 24 19.519 C 24 19.805, 21.116 29.953, 17.591 42.070 L 11.182 64.102 15.800 63.801 L 20.419 63.500 22.005 58 L 23.591 52.500 31.010 52.500 L 38.429 52.500 40.082 58 L 41.734 63.500 46.453 63.808 C 50.617 64.080, 51.105 63.904, 50.606 62.308 C 50.295 61.314, 48.210 54.200, 45.972 46.500 C 43.734 38.800, 41.006 29.462, 39.909 25.750 L 37.915 19 30.958 19 C 27.131 19, 24 19.234, 24 19.519 M 56.750 19.689 C 55.151 20.107, 55 22.030, 55 42.028 L 55 63.909 58.623 64.589 C 64.037 65.605, 77.266 64.431, 80.758 62.625 C 85.251 60.302, 88.001 56.309, 87.996 52.115 C 87.992 47.971, 84.756 42, 82.515 42 C 80.349 42, 80.624 41.227, 83.750 38.539 C 86.065 36.547, 86.500 35.386, 86.500 31.192 C 86.500 22.254, 81.213 18.932, 67.282 19.116 C 62.452 19.180, 57.712 19.438, 56.750 19.689 M 30.640 27 C 30.086 28.443, 26 43.177, 26 43.730 C 26 43.878, 28.250 44, 31 44 C 33.750 44, 35.993 43.663, 35.984 43.250 C 35.927 40.468, 31.101 25.797, 30.640 27 M 65.250 26.662 C 64.488 26.970, 64 29.086, 64 32.083 L 64 37 69.345 37 C 75.737 37, 78.646 34.709, 77.591 30.505 C 76.683 26.890, 69.912 24.781, 65.250 26.662 M 64 50.880 L 64 57 69.845 57 C 76.133 57, 79 55.234, 79 51.362 C 79 47.337, 76.602 45.671, 70.134 45.203 L 64 44.760 64 50.880" stroke="none" fill="#ffffff" fill-rule="evenodd"/><path d="M 24 19.519 C 24 19.805, 21.116 29.953, 17.591 42.070 L 11.182 64.102 15.800 63.801 L 20.419 63.500 22.005 58 L 23.591 52.500 31.010 52.500 L 38.429 52.500 40.082 58 L 41.734 63.500 46.453 63.808 C 50.617 64.080, 51.105 63.904, 50.606 62.308 C 50.295 61.314, 48.210 54.200, 45.972 46.500 C 43.734 38.800, 41.006 29.462, 39.909 25.750 L 37.915 19 30.958 19 C 27.131 19, 24 19.234, 24 19.519 M 58.813 19.683 C 59.534 19.972, 60.397 19.936, 60.729 19.604 C 61.061 19.272, 60.471 19.036, 59.417 19.079 C 58.252 19.127, 58.015 19.364, 58.813 19.683 M 75.333 19.667 C 75.700 20.033, 76.300 20.033, 76.667 19.667 C 77.033 19.300, 76.733 19, 76 19 C 75.267 19, 74.967 19.300, 75.333 19.667 M 30.640 27 C 30.086 28.443, 26 43.177, 26 43.730 C 26 43.878, 28.250 44, 31 44 C 33.750 44, 35.993 43.663, 35.984 43.250 C 35.927 40.468, 31.101 25.797, 30.640 27 M 64.333 26.667 C 64.700 27.033, 65.300 27.033, 65.667 26.667 C 66.033 26.300, 65.733 26, 65 26 C 64.267 26, 63.967 26.300, 64.333 26.667 M 73.333 26.667 C 73.700 27.033, 74.300 27.033, 74.667 26.667 C 75.033 26.300, 74.733 26, 74 26 C 73.267 26, 72.967 26.300, 73.333 26.667 M 86.232 31 C 86.232 32.925, 86.438 33.712, 86.689 32.750 C 86.941 31.788, 86.941 30.212, 86.689 29.250 C 86.438 28.288, 86.232 29.075, 86.232 31 M 75.872 35.750 C 74.629 37.336, 74.664 37.371, 76.250 36.128 C 77.916 34.821, 78.445 34, 77.622 34 C 77.415 34, 76.627 34.788, 75.872 35.750 M 84.405 37.155 C 83.962 37.870, 84.130 38.038, 84.845 37.595 C 85.480 37.203, 86 36.684, 86 36.441 C 86 35.607, 85.117 36.002, 84.405 37.155 M 66.250 37.716 C 67.763 37.945, 70.237 37.945, 71.750 37.716 C 73.263 37.487, 72.025 37.300, 69 37.300 C 65.975 37.300, 64.737 37.487, 66.250 37.716 M 80 41 C 80 41.733, 80.300 42.033, 80.667 41.667 C 81.033 41.300, 81.033 40.700, 80.667 40.333 C 80.300 39.967, 80 40.267, 80 41 M 83 42.378 C 83 42.585, 83.787 43.373, 84.750 44.128 C 86.336 45.371, 86.371 45.336, 85.128 43.750 C 83.821 42.084, 83 41.555, 83 42.378 M 74.333 45.667 C 74.700 46.033, 75.300 46.033, 75.667 45.667 C 76.033 45.300, 75.733 45, 75 45 C 74.267 45, 73.967 45.300, 74.333 45.667 M 76.872 55.750 C 75.629 57.336, 75.664 57.371, 77.250 56.128 C 78.916 54.821, 79.445 54, 78.622 54 C 78.415 54, 77.627 54.788, 76.872 55.750 M 87 55 C 87 55.733, 87.300 56.033, 87.667 55.667 C 88.033 55.300, 88.033 54.700, 87.667 54.333 C 87.300 53.967, 87 54.267, 87 55 M 66.264 57.718 C 67.784 57.947, 70.034 57.941, 71.264 57.704 C 72.494 57.467, 71.250 57.279, 68.500 57.286 C 65.750 57.294, 64.744 57.488, 66.264 57.718 M 77.333 63.667 C 77.700 64.033, 78.300 64.033, 78.667 63.667 C 79.033 63.300, 78.733 63, 78 63 C 77.267 63, 76.967 63.300, 77.333 63.667 M 59.750 64.706 C 60.987 64.944, 63.013 64.944, 64.250 64.706 C 65.487 64.467, 64.475 64.272, 62 64.272 C 59.525 64.272, 58.513 64.467, 59.750 64.706 M 69.250 64.689 C 70.213 64.941, 71.787 64.941, 72.750 64.689 C 73.713 64.438, 72.925 64.232, 71 64.232 C 69.075 64.232, 68.287 64.438, 69.250 64.689" stroke="none" fill="#59ad71" fill-rule="evenodd"/><path d="M 58.250 19.723 L 55 20.127 55 42.063 L 55 64 60.750 64.129 C 77.476 64.504, 84.044 62.532, 86.623 56.361 C 87.548 54.146, 87.933 51.415, 87.573 49.617 C 86.906 46.281, 83.395 42, 81.326 42 C 80.597 42, 80 41.550, 80 41 C 80 40.450, 80.623 40, 81.385 40 C 83.726 40, 86 35.314, 86 30.490 C 86 21.053, 76.678 17.437, 58.250 19.723 M 64 32 L 64 38 68.777 38 C 74.703 38, 78 35.890, 78 32.098 C 78 27.927, 75.210 26, 69.171 26 L 64 26 64 32 M 64 51.639 L 64 58.278 70.037 57.730 C 77.215 57.079, 79 55.845, 79 51.533 C 79 46.796, 76.436 45, 69.671 45 L 64 45 64 51.639" stroke="none" fill="#3b744d" fill-rule="evenodd"/></svg>